<svg xmlns="http://www.w3.org/2000/svg" width="10.85" height="10.85" viewBox="0 0 10.85 10.85">
  <g id="Group_5753" data-name="Group 5753" transform="translate(11.804 -0.954) rotate(90)">
    <g id="Icon_feather-sun" data-name="Icon feather-sun" transform="translate(0 3.539) rotate(-21)">
      <path id="Path_51237" data-name="Path 51237" d="M4.488,2.244A2.244,2.244,0,1,1,2.244,0,2.244,2.244,0,0,1,4.488,2.244Z" transform="translate(2.693 2.693)" fill="none" stroke="#00206b" stroke-linecap="round" stroke-linejoin="round" stroke-width="1"/>
      <path id="Path_51238" data-name="Path 51238" d="M0,0V.9" transform="translate(4.937 0)" fill="none" stroke="#00206b" stroke-linecap="round" stroke-linejoin="round" stroke-width="1"/>
      <path id="Path_51239" data-name="Path 51239" d="M0,0V.9" transform="translate(4.937 8.977)" fill="none" stroke="#00206b" stroke-linecap="round" stroke-linejoin="round" stroke-width="1"/>
      <path id="Path_51240" data-name="Path 51240" d="M0,0,.637.637" transform="translate(1.445 1.445)" fill="none" stroke="#00206b" stroke-linecap="round" stroke-linejoin="round" stroke-width="1"/>
      <path id="Path_51241" data-name="Path 51241" d="M0,0,.637.637" transform="translate(7.792 7.792)" fill="none" stroke="#00206b" stroke-linecap="round" stroke-linejoin="round" stroke-width="1"/>
      <path id="Path_51242" data-name="Path 51242" d="M0,0H.9" transform="translate(0 4.937)" fill="none" stroke="#00206b" stroke-linecap="round" stroke-linejoin="round" stroke-width="1"/>
      <path id="Path_51243" data-name="Path 51243" d="M0,0H.9" transform="translate(8.977 4.937)" fill="none" stroke="#00206b" stroke-linecap="round" stroke-linejoin="round" stroke-width="1"/>
      <path id="Path_51244" data-name="Path 51244" d="M0,.637.637,0" transform="translate(1.445 7.792)" fill="none" stroke="#00206b" stroke-linecap="round" stroke-linejoin="round" stroke-width="1"/>
      <path id="Path_51245" data-name="Path 51245" d="M0,.637.637,0" transform="translate(7.792 1.445)" fill="none" stroke="#00206b" stroke-linecap="round" stroke-linejoin="round" stroke-width="1"/>
    </g>
  </g>
</svg>
