<svg xmlns="http://www.w3.org/2000/svg" width="10.992" height="11.56" viewBox="0 0 10.992 11.56">
  <path id="Icon_ionic-ios-moon" data-name="Icon ionic-ios-moon" d="M8.04,7.261c-.073,0-.145.005-.218.005A4.41,4.41,0,0,1,4.65,5.93,4.557,4.557,0,0,1,3.337,2.708,4.615,4.615,0,0,1,3.775.74a6.52,6.52,0,0,1,.34-.585A.1.1,0,0,0,4.018,0,4.816,4.816,0,0,0,0,4.78,4.792,4.792,0,0,0,4.756,9.608,4.716,4.716,0,0,0,8.38,7.9a4.569,4.569,0,0,0,.41-.545.1.1,0,0,0-.1-.153A4.272,4.272,0,0,1,8.04,7.261Z" transform="matrix(0.966, -0.259, 0.259, 0.966, 0, 2.279)" fill="#fafcff"/>
</svg>
