<svg xmlns="http://www.w3.org/2000/svg" width="542.68" height="469.175" viewBox="0 0 542.68 469.175">
  <g id="Group_17520" data-name="Group 17520" transform="translate(-723.333 -136.925)">
    <path id="Path" d="M1.2,11.479c1.682,2.811,5.2,4,8.23,4.607a105.033,105.033,0,0,0,11.787,1.351L23.493,18a3.423,3.423,0,0,1,2.259,4.294,68.774,68.774,0,0,1-5.779,13.946l3.6,3.6c1.021-1.381,1.069-3.8,2.439-3.568,1.316-1.315,2.878-1.958,4.494-.2,3.16,3.454,2.649,10.631-1.994,12.613l1.039,5.171a7.971,7.971,0,0,0,7.81,6.421l-.8-6.12c5.407,2.733,11.54-3.177,11.114-8.048a9.038,9.038,0,0,1,2.95-8.066c.162-.162-.829-.763-.679-.925.7-2.108.793-4.571.1-5.964-1.2-2.487-4.74-3.94-3.112-6.655a12.99,12.99,0,0,0,1.544-3.82,12.707,12.707,0,0,0-2.565-10.21c-2.4-2.883-6.308-2.108-9.5-3.129-3.887-1.2-5.683-5.363-9.75-6.649a10.8,10.8,0,0,0-5.923.114c-1.712.4-3.406.841-5.088,1.369s-3.16.967-4.806.474C8.679,2.049,7,.019,4.63,0A5.3,5.3,0,0,0,1.338,1.052C-.416,4.206-.428,8.782,1.2,11.479Z" transform="translate(1166.759 251.316)" fill="#353642"/>
    <g id="Group" transform="translate(967.757 204.974)">
      <path id="Path-2" data-name="Path" d="M101.513,139.144s65.4-72.121-30.914-108.11a70.815,70.815,0,0,0-17.325-3.976C37.9,25.424,3.917,19.616,0,0" transform="translate(173.037 0)" fill="none" stroke="#ccdde2" stroke-miterlimit="10" stroke-width="4"/>
      <path id="Path-3" data-name="Path" d="M.49.493V.475" transform="translate(-0.49 37.688)" fill="none" stroke="#ccdde2" stroke-miterlimit="10" stroke-width="4"/>
      <g id="Group-2" data-name="Group" transform="translate(171.607 60.866)">
        <path id="Path-4" data-name="Path" d="M.49.493V.475" transform="translate(-0.49 106.68)" fill="none" stroke="#ccdde2" stroke-miterlimit="10" stroke-width="4"/>
        <path id="Path-5" data-name="Path" d="M0,4.348A17.184,17.184,0,0,1,2.271,1.273c1.316-1.315,2.878-1.958,4.494-.2C9.924,4.529,9.414,11.706,4.77,13.688l1.039,5.171a7.971,7.971,0,0,0,7.81,6.421" transform="translate(51.135 20.487)" fill="none" stroke="#ccdde2" stroke-linecap="round" stroke-linejoin="round" stroke-miterlimit="10" stroke-width="4"/>
        <path id="Path-6" data-name="Path" d="M3.7,29.016c-.264-2.006-.919-7.273-1.55-12.295C1.55,12.066,1.015,7.586.8,6.108L0,0" transform="translate(63.961 39.634)" fill="none" stroke="#ccdde2" stroke-linecap="round" stroke-linejoin="round" stroke-miterlimit="10" stroke-width="4"/>
        <g id="Group-3" data-name="Group" transform="translate(21.993 0)">
          <path id="Path-7" data-name="Path" d="M0,0S7.671.378,9.155,6.727" transform="translate(8.579 8.463)" fill="none" stroke="#ccdde2" stroke-miterlimit="10" stroke-width="4"/>
          <path id="Path-8" data-name="Path" d="M5.791,25.238C3.7,25.184.985,24.877,0,22.757l5.287-5.832a8.45,8.45,0,0,0,2.163-5.177C7.659,8.523,7.281,3.405,10.369,0" transform="translate(0)" fill="none" stroke="#ccdde2" stroke-miterlimit="10" stroke-width="4"/>
        </g>
      </g>
    </g>
    <ellipse id="Oval" cx="2.337" cy="1.982" rx="2.337" ry="1.982" transform="translate(1173.235 284.738) rotate(-132.11)" fill="#ccdde2"/>
    <path id="Path-9" data-name="Path" d="M0,19.3,3.983,0" transform="translate(1172.188 310.082)" fill="none" stroke="#ccdde2" stroke-miterlimit="10" stroke-width="4.11"/>
    <path id="Path-10" data-name="Path" d="M0,89.8l25.67,20.985C-5.214,157.877,18.16,166.52,18.16,166.52a124.983,124.983,0,0,0,13.715,1.844c22.323,1.61,45.224-4.15,63.624-17.051C132.746,125.186,165.185,72.9,147.884,27.37a73.1,73.1,0,0,0-5.317-11.123A32.927,32.927,0,0,0,135.8,8.03a32.445,32.445,0,0,0-34.843-5.1,32.027,32.027,0,0,0-6.134,3.676C85.1,14.048,76.258,24.625,68.635,35.724A271.948,271.948,0,0,0,50.4,67.088c-1.484,2.961-2.829,5.76-4.019,8.324C35.6,71.052,26.559,63.647,18.148,55.647,28.319,74.626,0,89.8,0,89.8Z" transform="translate(1071.222 326.46)" fill="#353642"/>
    <g id="Group-4" data-name="Group" transform="translate(999.903 351.836)">
      <path id="Path-11" data-name="Path" d="M0,0C.493.378,1,.775,1.514,1.153" transform="translate(89.281 79.779)" fill="none" stroke="#ccdde2" stroke-miterlimit="10" stroke-width="4.11"/>
      <path id="Path-12" data-name="Path" d="M165.173,0Q154.96,19.55,144.747,39.172c-5.136,9.874-13.817,15.97-26.042,11.292-13.3-5.093-24.03-14.829-33.954-24.751S64.771,6.3,50.443,3.742C31.923.432,14.4,10.523,1.783,23.274a6.11,6.11,0,0,0,8.284,8.967c5.977-5.1,15.7-12.475,22.468-12.571" transform="translate(0 0)" fill="none" stroke="#ccdde2" stroke-miterlimit="10" stroke-width="4.11"/>
      <path id="Path-13" data-name="Path" d="M7.365,0C5.287,1.387,2.4,2.925,0,2.925" transform="translate(43.625 37.166)" fill="none" stroke="#ccdde2" stroke-miterlimit="10" stroke-width="4.11"/>
      <path id="Path-14" data-name="Path" d="M4.545,0C.111,2.192-1.5,8.607,1.625,12.439a44.513,44.513,0,0,0,14.586,11.8c6.176,3.081,10.14,1.2,16.22-2.559" transform="translate(19.808 22.199)" fill="none" stroke="#ccdde2" stroke-miterlimit="10" stroke-width="4.11"/>
      <path id="Path-15" data-name="Path" d="M8.553,0S-.23,2.174,0,10.7A4.059,4.059,0,0,0,.2,11.766" transform="translate(26.061 27.946)" fill="none" stroke="#ccdde2" stroke-miterlimit="10" stroke-width="4.11"/>
      <path id="Path-16" data-name="Path" d="M7.688,0S-4.093,7.61,1.512,12.4" transform="translate(33.132 33.316)" fill="none" stroke="#ccdde2" stroke-miterlimit="10" stroke-width="4.11"/>
    </g>
    <path id="Path-17" data-name="Path" d="M.529,22.8C14.406,60.928,53.256,62,57.7,62c-1.862-3.922-2.367-10.811,1.712-22.883A23.558,23.558,0,0,1,59.7,12.093c-.054-.048-.084-.114-.132-.162a32.717,32.717,0,0,1-5.761-.871c-6.7-1.6-19.921-5.105-30.409-10.042C16.281-2.34,7.984,3.041,8.591,10.891a.962.962,0,0,0,.036.312A8.619,8.619,0,0,0,.529,22.8Z" transform="translate(812.627 392.183)" fill="#ccdde2"/>
    <path id="Path-18" data-name="Path" d="M3.759,166.73c4.674,8.018,11.949,14.847,18.977,20.805,24.745,20.937,57.07,31.568,89.51,31.983,32.548-.414,64.994-11.081,89.853-31.832,78.547-65.575,64.351-143,51.646-178.85a15.314,15.314,0,0,0-1.8-3.5A12.478,12.478,0,0,0,243.232,0c-6.668.919-12.724,6.451-11.654,15.015,0,.33.132.787.162,1.117,17.289,45.526-15.163,97.816-52.385,123.942-16.887,11.85-37.564,17.676-58.11,17.3h-.234q-2.643-.054-5.281-.246c-11.54-.841-22.756-3.6-33.864-6.949-13.036-3.9-25.928-8.625-38.952-11.934-4.578-1.165-9.167-2.288-13.781-3.339a30.48,30.48,0,0,0-8.1-.559c-16,1.081-27.238,15.3-17.277,32.385Z" transform="translate(987.475 337.686)" fill="#d7e8f0"/>
    <path id="Path-19" data-name="Path" d="M3.758,166.73c4.674,8.018,11.955,14.847,18.983,20.805,25.73,21.79,59.678,32.433,93.475,31.983,32.548-.414,64.994-11.081,89.853-31.832C284.6,122.11,270.4,44.686,257.7,8.835a15.315,15.315,0,0,0-1.8-3.5A12.478,12.478,0,0,0,247.183,0c-6.668.919-12.724,6.451-11.654,15.015,0,.33.132.787.162,1.117,17.289,45.526-15.163,97.816-52.385,123.942-16.887,11.85-37.564,17.676-58.11,17.3h-.234q-4.644.072-9.233-.246c-11.54-.841-22.75-3.6-33.864-6.949-13.036-3.9-25.928-8.625-38.952-11.934-4.572-1.165-9.167-2.288-13.775-3.339a30.8,30.8,0,0,0-4.151-.559C7,133.138-7.008,148.267,3.758,166.73Z" transform="translate(983.523 337.686)" fill="#d7e8f0"/>
    <path id="Path-20" data-name="Path" d="M84.349.21,76.443,11.394S28.606,13.256,2.426,35.226A6.781,6.781,0,0,0,6.8,47.19a6.687,6.687,0,0,0,4.331-1.574c6.182-5.189,29.8-21.5,83.214-21.994,52.048-.486,72.011,15.616,77.531,21.484a6.7,6.7,0,0,0,4.89,2.084h1.027A6.781,6.781,0,0,0,181.9,35.022c-21.855-16.991-70.845-22.409-70.845-22.409L102.7,0" transform="translate(1009.966 556.885)" fill="#353642"/>
    <path id="Path-21" data-name="Path" d="M85.381,0S70.729,13.916,75.3,57.058a19.253,19.253,0,0,0,3.124,8.613l1.592,2.4A19.476,19.476,0,0,0,91.1,76.049c9.57,2.613,26.931,8.667,37.654,20.139A7.562,7.562,0,1,1,117,105.624c-4.367-6.571-17.59-20.523-49.483-20.229-35.972.33-50.462,14.631-55.106,20.793A6.9,6.9,0,1,1,1.854,97.347C15.882,82.11,33.039,76.428,42.507,74.32A19.351,19.351,0,0,0,57.825,56.151c.529-13.376.8-45.845-8.26-56.139" transform="translate(797.227 495.082)" fill="#353642"/>
    <g id="Group-5" data-name="Group" transform="translate(794.659 316.044)">
      <path id="Path-22" data-name="Path" d="M198.5,57.028c-25.766-12.5-53.73-20.709-81.226-28.433C89.606,20.823,61.666,14.042,33.641,7.67,22.444,5.129,11.144,2.865,0,0" transform="translate(76.06 114.808)" fill="none" stroke="#ccdde2" stroke-miterlimit="10" stroke-width="4"/>
      <path id="Path-23" data-name="Path" d="M.5.49H.465" transform="translate(249.893 75.219)" fill="none" stroke="#ccdde2" stroke-miterlimit="10" stroke-width="4"/>
      <path id="Path-24" data-name="Path" d="M0,50.487c1.616,1.6,7.383,10.132,8.831,11.664a296.735,296.735,0,0,0,25.3,24.1c2.241,1.862,4.614,3.784,7.113,5.73.493.378,1,.775,1.514,1.153,16.941,12.853,39.048,25.226,59.473,17.3.541-.2,1.069-.426,1.592-.661,31.329-14.024,53.226-49.148,55.136-83.053.066-1.105.1-2.2.114-3.291.168-9.267-1.2-18.535-10.092-23.424" transform="translate(253.278 23.593)" fill="none" stroke="#ccdde2" stroke-miterlimit="10" stroke-width="4"/>
      <path id="Path-25" data-name="Path" d="M231.757,16.169l-.126-.985C229.636-.8,252.344-6.2,257.733,8.991c12.7,35.845,26.9,113.251-51.664,178.838-50.708,42.349-132.806,42.643-183.322-.138-7.029-5.952-14.3-12.793-18.983-20.811C-8.077,146.6,10.006,130.345,30.4,135.336" transform="translate(192.642 21.485)" fill="none" stroke="#ccdde2" stroke-miterlimit="10" stroke-width="4"/>
      <path id="Path-26" data-name="Path" d="M84.349.21,76.443,11.394S28.606,13.256,2.426,35.226A6.781,6.781,0,0,0,6.8,47.19a6.687,6.687,0,0,0,4.331-1.574c6.182-5.189,29.8-21.5,83.214-21.994,52.048-.486,72.011,15.616,77.531,21.484a6.7,6.7,0,0,0,4.89,2.084h1.027A6.781,6.781,0,0,0,181.9,35.022c-21.855-16.991-70.845-22.409-70.845-22.409L102.7,0" transform="translate(215.306 240.841)" fill="none" stroke="#ccdde2" stroke-miterlimit="10" stroke-width="4"/>
      <path id="Path-27" data-name="Path" d="M31.641,52.7C11.588,47.3,3.328,19.015,0,0" transform="translate(294.723 23.84)" fill="none" stroke="#ccdde2" stroke-miterlimit="10" stroke-width="4"/>
      <path id="Path-28" data-name="Path" d="M37.153,46.158a32.848,32.848,0,0,1-25.73-19.172A7.206,7.206,0,0,1,11.6,20.5c2.187-4.048,5.449-8.739,4.674-13.592A8.44,8.44,0,0,0,9.669.3,9.247,9.247,0,0,0,4.683.386a6.818,6.818,0,0,0-4.4,3.85c-.787,1.844.15,3.67,1.6,4.871a12.219,12.219,0,0,0,4.908,2.108c.228.066.853.2,1.544.33" transform="translate(308.062 0)" fill="none" stroke="#ccdde2" stroke-miterlimit="10" stroke-width="4"/>
      <path id="Path-29" data-name="Path" d="M49.489,27.406S9.96,19.129,2.535,7.207A16.671,16.671,0,0,1,0,0" transform="translate(26.595 87.39)" fill="none" stroke="#ccdde2" stroke-miterlimit="10" stroke-width="4"/>
      <path id="Path-30" data-name="Path" d="M252.615,84.057c-68.947-7.321-146.767-6.24-146.767-6.24H62.174a35.727,35.727,0,0,1-8.38-.985c-6.7-1.6-19.921-5.1-30.409-10.042-7.113-3.357-15.409,2.024-14.8,9.88a.981.981,0,0,0,.036.312A8.619,8.619,0,0,0,.52,88.55c14.73,40.475,57.587,39.208,57.587,39.208,5.479.162,10.946.378,16.43.661a718.631,718.631,0,0,1,143.09,21.1c13.024,3.309,25.916,8.03,38.952,11.934,11.114,3.357,22.342,6.1,33.882,6.943,22.324,1.616,45.224-4.15,63.624-17.051,40.3-28.277,74.99-87.233,47.068-135.09a32.435,32.435,0,0,0-47.741-9.61c-21.945,16.787-39.475,49.49-48.468,68.782" transform="translate(17.976 10.378)" fill="none" stroke="#ccdde2" stroke-miterlimit="10" stroke-width="4"/>
      <path id="Path-31" data-name="Path" d="M0,.49H95.95" transform="translate(19.41 178.548)" fill="none" stroke="#ccdde2" stroke-miterlimit="10" stroke-width="4"/>
      <path id="Path-32" data-name="Path" d="M134.728,19.382A19.438,19.438,0,0,0,115.348,0H19.386A19.438,19.438,0,0,0,0,19.382" transform="translate(0 140.28)" fill="none" stroke="#ccdde2" stroke-miterlimit="10" stroke-width="4"/>
    </g>
    <path id="Path-33" data-name="Path" d="M0,9.237a12.47,12.47,0,0,0,12.513,12.5h113.54A10.9,10.9,0,0,0,124.407.018H10.867A12.472,12.472,0,0,0,.607,5.369,12.653,12.653,0,0,0,0,9.237Z" transform="translate(792.773 473.34)" fill="#d7e8f0"/>
    <g id="Group-6" data-name="Group" transform="translate(792.773 138.925)">
      <g id="Group-7" data-name="Group" transform="translate(0 110.026)">
        <g id="Group-8" data-name="Group" transform="translate(0 43.009)">
          <path id="Path-34" data-name="Path" d="M0,12.514a12.47,12.47,0,0,0,12.513,12.5h113.54a12.511,12.511,0,1,0,0-25.015H12.513A12.513,12.513,0,0,0,.607,8.646,12.652,12.652,0,0,0,0,12.514Z" transform="translate(0 178.103)" fill="none" stroke="#ccdde2" stroke-miterlimit="10" stroke-width="4"/>
          <path id="Path-35" data-name="Path" d="M3.134,30.421l.228,1.928a3.6,3.6,0,0,0,3.574,3.177H19.414a3.6,3.6,0,0,0,3.574-3.177L24.6,18.535c-.691-.132-1.316-.264-1.544-.33A11.872,11.872,0,0,1,18.146,16.1c-1.43-1.219-2.4-3-1.6-4.871a6.818,6.818,0,0,1,4.4-3.85,9.247,9.247,0,0,1,4.986-.084L26.31,4a3.6,3.6,0,0,0-3.574-4H3.59A3.6,3.6,0,0,0,.022,4L.466,7.754" transform="translate(293.692 17.058)" fill="none" stroke="#ccdde2" stroke-miterlimit="10" stroke-width="4"/>
          <path id="Path-36" data-name="Path" d="M.475.382.493.514" transform="translate(294.686 33.012)" fill="none" stroke="#ccdde2" stroke-miterlimit="10" stroke-width="4"/>
          <path id="Path-37" data-name="Path" d="M.49.5V.446" transform="translate(295.609 40.829)" fill="none" stroke="#ccdde2" stroke-miterlimit="10" stroke-width="4"/>
          <path id="Path-38" data-name="Path" d="M7.9,16.585a.493.493,0,0,1,.162,0,1,1,0,0,1,.228,0,3.105,3.105,0,0,1,.5,6.168,2.56,2.56,0,0,1-1,0,6.506,6.506,0,0,1-3.869-2.138,21.289,21.289,0,0,1-2.733-7.129.126.126,0,0,1,0-.078A23.365,23.365,0,0,1,.769,7.762a19.83,19.83,0,0,1,.2-2.4A6.2,6.2,0,0,1,6.14.093.434.434,0,0,0,6.35.057c2.523-.312,6.061.643,6.716,3.49.6,2.571-2.187,4.775-4.476,4.973,0,0-.6.078-1.448.132-1.694.114-4.512.1-6.374-.889A4.277,4.277,0,0,1,0,7.252" transform="translate(288.019 24.743)" fill="none" stroke="#ccdde2" stroke-miterlimit="10" stroke-width="4"/>
          <path id="Path-39" data-name="Path" d="M4.115,0H9.143A3.736,3.736,0,0,1,9.69,7.43C5.545,8.1.811,8.234,0,4.523" transform="translate(289.172 33.533)" fill="none" stroke="#ccdde2" stroke-miterlimit="10" stroke-width="4"/>
          <path id="Path-40" data-name="Path" d="M85.381,0S70.729,13.916,75.3,57.058a19.253,19.253,0,0,0,3.124,8.613l1.592,2.4A19.476,19.476,0,0,0,91.1,76.049c9.57,2.613,26.931,8.667,37.654,20.139A7.562,7.562,0,1,1,117,105.624c-4.367-6.571-17.59-20.523-49.483-20.229-35.972.33-50.462,14.631-55.106,20.793A6.9,6.9,0,1,1,1.854,97.347C15.882,82.11,33.039,76.428,42.507,74.32A19.351,19.351,0,0,0,57.825,56.151c.529-13.376.8-45.845-8.26-56.139" transform="translate(4.453 203.121)" fill="none" stroke="#ccdde2" stroke-miterlimit="10" stroke-width="4"/>
          <path id="Path-41" data-name="Path" d="M0,7.129V8.1c0,6.661,5.371,7.808,10.008,7.922l89.757,2.09c3.935.1,7.245-3.339,7.329-7.64v-.18c0-4.2-3.1-7.718-6.981-7.808,0,0-50.216-1.417-89.1-2.487A10.647,10.647,0,0,1,6.212,5.592,10.965,10.965,0,0,1,0,7.129Z" transform="translate(120.292 95.155)" fill="none" stroke="#ccdde2" stroke-miterlimit="10" stroke-width="4"/>
          <path id="Path-42" data-name="Path" d="M0,7.328a7.05,7.05,0,0,0,.733,3.159L40.874,92.759a7.3,7.3,0,0,0,4.806,3.862,7.21,7.21,0,0,0,4.95-.5,7.327,7.327,0,0,0,4.091-6.607,8.143,8.143,0,0,0-.072-1.009,7.206,7.206,0,0,0-.661-2.144L13.853,4.073A7.281,7.281,0,0,0,.036,7.286Z" transform="translate(72.581 0)" fill="none" stroke="#ccdde2" stroke-miterlimit="10" stroke-width="4"/>
        </g>
        <path id="Path-43" data-name="Path" d="M.206,1.021C.254.853.32.691.374.529S.506.18.554,0" transform="translate(397.352 41.196)" fill="none" stroke="#ccdde2" stroke-linecap="round" stroke-linejoin="round" stroke-miterlimit="10" stroke-width="4"/>
        <path id="Path-44" data-name="Path" d="M3.586,3.622,2.355,2.384,0,0" transform="translate(393.971 38.601)" fill="none" stroke="#ccdde2" stroke-linecap="round" stroke-linejoin="round" stroke-miterlimit="10" stroke-width="4"/>
        <path id="Path-45" data-name="Path" d="M7.617,0S6.037,4.715,0,5.033" transform="translate(376.081 45.478)" fill="none" stroke="#ccdde2" stroke-miterlimit="10" stroke-width="4"/>
        <path id="Path-46" data-name="Path" d="M36.568,56.524c5.407,2.733,11.54-3.177,11.114-8.048a9.038,9.038,0,0,1,2.95-8.066c.162-.162.312-.33.457-.493a6.936,6.936,0,0,0,1.141-7.706c-1.123-2.613-3.544-4.144-1.862-6.961a13.422,13.422,0,0,0,1.6-3.934A13.091,13.091,0,0,0,49.316,10.8c-2.475-3-6.506-2.174-9.816-3.225C35.517,6.307,33.655,2.024,29.473.709a11.28,11.28,0,0,0-6.122.114c-1.76.414-3.526.877-5.238,1.417s-3.274,1-4.986.493C10.887,2.078,9.162.018,6.723,0A6.073,6.073,0,0,0,1.317,3.424C-.413,6.571-.425,11.148,1.2,13.862c1.682,2.811,5.2,4,8.23,4.607A105.034,105.034,0,0,0,21.219,19.82l2.277.559a3.423,3.423,0,0,1,2.259,4.276A68.774,68.774,0,0,1,19.976,38.6" transform="translate(373.983 0)" fill="none" stroke="#ccdde2" stroke-miterlimit="10" stroke-width="4"/>
        <path id="Path-47" data-name="Path" d="M22.749,15S10.83,23.724,4.036,18.913,1.08,0,1.08,0" transform="translate(371.222 42.217)" fill="none" stroke="#ccdde2" stroke-linecap="round" stroke-linejoin="round" stroke-miterlimit="10" stroke-width="4"/>
        <g id="Group-9" data-name="Group" transform="translate(303.158 39.016)">
          <path id="Path-48" data-name="Path" d="M0,15.027S5.064,11.6,1.844,8.108,2.914,0,2.914,0" transform="translate(6.595 0)" fill="none" stroke="#ccdde2" stroke-miterlimit="10" stroke-width="4"/>
          <path id="Path-49" data-name="Path" d="M1.922,9.988S-1.431,7.724.72,5.406.005,0,.005,0" transform="translate(0 5.634)" fill="none" stroke="#ccdde2" stroke-miterlimit="10" stroke-width="4"/>
        </g>
      </g>
      <g id="Group-10" data-name="Group" transform="translate(215.948)">
        <ellipse id="Oval-2" data-name="Oval" cx="66.033" cy="66.019" rx="66.033" ry="66.019" transform="translate(0)" fill="none" stroke="#ccdde2" stroke-miterlimit="10" stroke-width="4"/>
        <ellipse id="Oval-3" data-name="Oval" cx="36.267" cy="36.259" rx="36.267" ry="36.259" transform="translate(29.767 29.76)" fill="none" stroke="#ccdde2" stroke-miterlimit="10" stroke-width="4"/>
        <ellipse id="Oval-4" data-name="Oval" cx="6.218" cy="6.216" rx="6.218" ry="6.216" transform="translate(59.816 59.803)" fill="none" stroke="#ccdde2" stroke-miterlimit="10" stroke-width="4"/>
        <path id="Path-50" data-name="Path" d="M0,0,9.6,15.472" transform="translate(53.159 45.262)" fill="none" stroke="#ccdde2" stroke-miterlimit="10" stroke-width="4"/>
        <path id="Path-51" data-name="Path" d="M.49,0V6.451" transform="translate(65.543 29.76)" fill="none" stroke="#ccdde2" stroke-miterlimit="10" stroke-width="4"/>
        <path id="Path-52" data-name="Path" d="M0,.49H6.116" transform="translate(29.767 65.529)" fill="none" stroke="#ccdde2" stroke-miterlimit="10" stroke-width="4"/>
        <path id="Path-53" data-name="Path" d="M.49,6.27V0" transform="translate(65.543 96.014)" fill="none" stroke="#ccdde2" stroke-miterlimit="10" stroke-width="4"/>
        <path id="Path-54" data-name="Path" d="M5.515.49H0" transform="translate(96.791 65.529)" fill="none" stroke="#ccdde2" stroke-miterlimit="10" stroke-width="4"/>
      </g>
    </g>
    <path id="Path-55" data-name="Path" d="M231.927,0S209.381,69.719,122.592,65.953c-28.836-3.6-63.156,0-93.715,40.241-46.455,61.214-27.8,129.408-6.692,172.694" transform="translate(781.408 180.674)" fill="none" stroke="#ccdde2" stroke-miterlimit="10" stroke-width="4.11"/>
    <path id="Path-56" data-name="Path" d="M518.751.49H0" transform="translate(723.333 603.555)" fill="none" stroke="#ccdde2" stroke-miterlimit="10" stroke-width="4.11"/>
    <g id="code_lines" transform="translate(761.333 249.625)">
      <path id="Path-57" data-name="Path" d="M3.417,7.552H2.109A2.089,2.089,0,0,1,0,5.442V2.109A2.089,2.089,0,0,1,2.109,0H3.417A2.089,2.089,0,0,1,5.527,2.109V5.442A2.089,2.089,0,0,1,3.417,7.552Z" transform="translate(39.996 0)" fill="#ccdde2"/>
      <path id="Path-58" data-name="Path" d="M35.777,7.552H2.109A2.089,2.089,0,0,1,0,5.442V2.109A2.089,2.089,0,0,1,2.109,0H35.777a2.089,2.089,0,0,1,2.109,2.109V5.442A2.089,2.089,0,0,1,35.777,7.552Z" transform="translate(0 0)" fill="#ccdde2"/>
      <path id="Path-59" data-name="Path" d="M39.194,7.552H2.109A2.089,2.089,0,0,1,0,5.442V2.109A2.089,2.089,0,0,1,2.109,0H39.194A2.089,2.089,0,0,1,41.3,2.109V5.442A2.116,2.116,0,0,1,39.194,7.552Z" transform="translate(0.042 35.06)" fill="#ccdde2"/>
      <path id="Path-60" data-name="Path" d="M61.977,7.552H2.109A2.089,2.089,0,0,1,0,5.442V2.109A2.089,2.089,0,0,1,2.109,0H61.977a2.089,2.089,0,0,1,2.109,2.109V5.442A2.089,2.089,0,0,1,61.977,7.552Z" transform="translate(10.463 23.373)" fill="#ccdde2"/>
      <path id="Path-61" data-name="Path" d="M32.486,7.552H2.109A2.089,2.089,0,0,1,0,5.442V2.109A2.089,2.089,0,0,1,2.109,0H32.486A2.089,2.089,0,0,1,34.6,2.109V5.442A2.089,2.089,0,0,1,32.486,7.552Z" transform="translate(78.135 23.373)" fill="#ccdde2"/>
      <path id="Path-62" data-name="Path" d="M3.417,7.552H2.109A2.089,2.089,0,0,1,0,5.442V2.109A2.089,2.089,0,0,1,2.109,0H3.417A2.089,2.089,0,0,1,5.527,2.109V5.442A2.116,2.116,0,0,1,3.417,7.552Z" transform="translate(118.933 11.729)" fill="#ccdde2"/>
      <path id="Path-63" data-name="Path" d="M64.171,7.552H2.109A2.089,2.089,0,0,1,0,5.442V2.109A2.089,2.089,0,0,1,2.109,0H64.171A2.089,2.089,0,0,1,66.28,2.109V5.442A2.089,2.089,0,0,1,64.171,7.552Z" transform="translate(0 11.687)" fill="#ccdde2"/>
      <path id="Path-64" data-name="Path" d="M35.777,7.552H2.109A2.089,2.089,0,0,1,0,5.442V2.109A2.089,2.089,0,0,1,2.109,0H35.777a2.089,2.089,0,0,1,2.109,2.109V5.442A2.116,2.116,0,0,1,35.777,7.552Z" transform="translate(47.97 0)" fill="#ccdde2"/>
      <path id="Path-65" data-name="Path" d="M44.637,7.594H2.109A2.089,2.089,0,0,1,0,5.485V2.109A2.089,2.089,0,0,1,2.109,0H44.637a2.089,2.089,0,0,1,2.109,2.109V5.485A2.116,2.116,0,0,1,44.637,7.594Z" transform="translate(69.233 11.687)" fill="#ccdde2"/>
    </g>
    <g id="code_lines_1_" transform="translate(917.5 283.507)">
      <path id="Path-66" data-name="Path" d="M35.777,7.552H2.109A2.089,2.089,0,0,1,0,5.442V2.109A2.089,2.089,0,0,1,2.109,0H35.777a2.089,2.089,0,0,1,2.109,2.109V5.442A2.089,2.089,0,0,1,35.777,7.552Z" transform="translate(0 11.307)" fill="#ccdde2"/>
      <path id="Path-67" data-name="Path" d="M39.194,7.552H2.109A2.089,2.089,0,0,1,0,5.442V2.109A2.089,2.089,0,0,1,2.109,0H39.194A2.089,2.089,0,0,1,41.3,2.109V5.442A2.144,2.144,0,0,1,39.194,7.552Z" transform="translate(0.042 46.367)" fill="#ccdde2"/>
      <path id="Path-68" data-name="Path" d="M61.977,7.552H2.109A2.089,2.089,0,0,1,0,5.442V2.109A2.089,2.089,0,0,1,2.109,0H61.977a2.089,2.089,0,0,1,2.109,2.109V5.442A2.089,2.089,0,0,1,61.977,7.552Z" transform="translate(10.463 34.68)" fill="#ccdde2"/>
      <path id="Path-69" data-name="Path" d="M32.486,7.552H2.109A2.089,2.089,0,0,1,0,5.442V2.109A2.089,2.089,0,0,1,2.109,0H32.486A2.089,2.089,0,0,1,34.6,2.109V5.442A2.089,2.089,0,0,1,32.486,7.552Z" transform="translate(78.135 34.68)" fill="#ccdde2"/>
      <path id="Path-70" data-name="Path" d="M3.417,7.552H2.109A2.089,2.089,0,0,1,0,5.442V2.109A2.089,2.089,0,0,1,2.109,0H3.417A2.089,2.089,0,0,1,5.527,2.109V5.442A2.116,2.116,0,0,1,3.417,7.552Z" transform="translate(118.933 23.036)" fill="#ccdde2"/>
      <path id="Path-71" data-name="Path" d="M3.417,7.552H2.109A2.089,2.089,0,0,1,0,5.442V2.109A2.089,2.089,0,0,1,2.109,0H3.417A2.089,2.089,0,0,1,5.527,2.109V5.442A2.089,2.089,0,0,1,3.417,7.552Z" transform="translate(128.552 11.307)" fill="#ccdde2"/>
      <path id="Path-72" data-name="Path" d="M64.171,7.552H2.109A2.089,2.089,0,0,1,0,5.442V2.109A2.089,2.089,0,0,1,2.109,0H64.171A2.089,2.089,0,0,1,66.28,2.109V5.442A2.089,2.089,0,0,1,64.171,7.552Z" transform="translate(0 22.993)" fill="#ccdde2"/>
      <path id="Path-73" data-name="Path" d="M43.709,7.552H2.109A2.089,2.089,0,0,1,0,5.442V2.109A2.089,2.089,0,0,1,2.109,0h41.6a2.089,2.089,0,0,1,2.109,2.109V5.442A2.116,2.116,0,0,1,43.709,7.552Z" transform="translate(40.038 11.307)" fill="#ccdde2"/>
      <path id="Path-74" data-name="Path" d="M35.777,7.552H2.109A2.089,2.089,0,0,1,0,5.442V2.109A2.089,2.089,0,0,1,2.109,0H35.777a2.089,2.089,0,0,1,2.109,2.109V5.442A2.089,2.089,0,0,1,35.777,7.552Z" transform="translate(88.767 11.307)" fill="#ccdde2"/>
      <path id="Path-75" data-name="Path" d="M3.417,7.552H2.109A2.089,2.089,0,0,1,0,5.442V2.109A2.089,2.089,0,0,1,2.109,0H3.417A2.089,2.089,0,0,1,5.527,2.109V5.442A2.116,2.116,0,0,1,3.417,7.552Z" transform="translate(39.996 0)" fill="#ccdde2"/>
      <path id="Path-76" data-name="Path" d="M35.777,7.552H2.109A2.089,2.089,0,0,1,0,5.442V2.109A2.089,2.089,0,0,1,2.109,0H35.777a2.089,2.089,0,0,1,2.109,2.109V5.442A2.116,2.116,0,0,1,35.777,7.552Z" transform="translate(0 0)" fill="#ccdde2"/>
      <path id="Path-77" data-name="Path" d="M35.777,7.552H2.109A2.089,2.089,0,0,1,0,5.442V2.109A2.089,2.089,0,0,1,2.109,0H35.777a2.089,2.089,0,0,1,2.109,2.109V5.442A2.144,2.144,0,0,1,35.777,7.552Z" transform="translate(47.97 0)" fill="#ccdde2"/>
      <path id="Path-78" data-name="Path" d="M44.637,7.594H2.109A2.089,2.089,0,0,1,0,5.485V2.109A2.089,2.089,0,0,1,2.109,0H44.637a2.089,2.089,0,0,1,2.109,2.109V5.485A2.116,2.116,0,0,1,44.637,7.594Z" transform="translate(69.233 22.993)" fill="#ccdde2"/>
    </g>
    <text id="_" data-name="&lt;" transform="translate(735 257.925)" fill="#ccdde2" font-size="23" font-family="Poppins-Bold, Poppins" font-weight="700"><tspan x="0" y="0">&lt;</tspan></text>
    <text id="_2" data-name="/&gt;" transform="translate(981 349.925)" fill="#fff" font-size="18" font-family="Poppins-Bold, Poppins" font-weight="700"><tspan x="0" y="0">/&gt;</tspan></text>
  </g>
</svg>
